<?xml version="1.0" standalone="no"?><!DOCTYPE svg PUBLIC "-//W3C//DTD SVG 1.1//EN" "http://www.w3.org/Graphics/SVG/1.1/DTD/svg11.dtd"><svg t="1642665463628" class="icon" viewBox="0 0 1024 1024" version="1.1" xmlns="http://www.w3.org/2000/svg" p-id="5314" xmlns:xlink="http://www.w3.org/1999/xlink" width="200" height="200"><defs><style type="text/css"></style></defs><path d="M531.549091 560.872727c-134.749091 0-244.363636-109.614545-244.363636-244.363636s109.614545-244.363636 244.363636-244.363636 244.363636 109.614545 244.363636 244.363636c0 134.725818-109.614545 244.363636-244.363636 244.363636z m0-418.932363c-96.256 0-174.545455 78.312727-174.545455 174.545454s78.289455 174.545455 174.545455 174.545455 174.545455-78.289455 174.545454-174.545455-78.289455-174.545455-174.545454-174.545454z" p-id="5315"></path><path d="M182.784 895.045818l-1.489455-0.023273a34.932364 34.932364 0 0 1-33.419636-36.352A382.999273 382.999273 0 0 1 531.549091 491.054545h0.046545c98.955636 0 192.907636 37.538909 264.587637 105.728a34.909091 34.909091 0 0 1-48.128 50.59491 312.715636 312.715636 0 0 0-216.459637-86.504728h-0.046545A313.320727 313.320727 0 0 0 217.646545 861.602909a34.955636 34.955636 0 0 1-34.862545 33.442909zM1008.989091 777.332364c0 19.316364-15.592727 34.909091-34.909091 34.909091h-69.818182v69.818181c0 19.316364-15.592727 34.909091-34.909091 34.909091s-34.909091-15.592727-34.909091-34.909091v-69.818181h-69.818181c-19.316364 0-34.909091-15.592727-34.909091-34.909091s15.592727-34.909091 34.909091-34.909091h69.818181v-69.818182c0-19.316364 15.592727-34.909091 34.909091-34.909091s34.909091 15.592727 34.909091 34.909091v69.818182h69.818182c19.339636 0 34.909091 15.592727 34.909091 34.909091z" p-id="5316"></path></svg>