<?xml version="1.0" standalone="no"?><!DOCTYPE svg PUBLIC "-//W3C//DTD SVG 1.1//EN" "http://www.w3.org/Graphics/SVG/1.1/DTD/svg11.dtd"><svg t="1642665263717" class="icon" viewBox="0 0 1024 1024" version="1.1" xmlns="http://www.w3.org/2000/svg" p-id="5174" xmlns:xlink="http://www.w3.org/1999/xlink" width="200" height="200"><defs><style type="text/css"></style></defs><path d="M512 534.411636c-145.966545 0-264.750545-118.784-264.750545-264.750545S366.033455 4.910545 512 4.910545c145.989818 0 264.773818 118.760727 264.773818 264.750546S657.989818 534.411636 512 534.411636z m0-459.682909c-107.473455 0-194.932364 87.435636-194.932364 194.932364s87.458909 194.932364 194.932364 194.932364c107.496727 0 194.955636-87.458909 194.955636-194.932364S619.496727 74.728727 512 74.728727z" p-id="5175"></path><path d="M971.659636 1006.778182h-0.628363a34.932364 34.932364 0 0 1-34.304-35.537455l0.069818-7.028363c0-234.216727-190.557091-424.773818-424.797091-424.773819S87.226182 729.972364 87.226182 964.212364a34.909091 34.909091 0 1 1-69.818182 0c0-272.733091 221.858909-494.592 494.592-494.592s494.615273 221.882182 494.615273 494.592l-0.069818 8.285091a34.932364 34.932364 0 0 1-34.885819 34.280727z" p-id="5176"></path></svg>