<?xml version="1.0" standalone="no"?><!DOCTYPE svg PUBLIC "-//W3C//DTD SVG 1.1//EN" "http://www.w3.org/Graphics/SVG/1.1/DTD/svg11.dtd"><svg t="1642665723624" class="icon" viewBox="0 0 1024 1024" version="1.1" xmlns="http://www.w3.org/2000/svg" p-id="6996" data-spm-anchor-id="a313x.7781069.0.i4" xmlns:xlink="http://www.w3.org/1999/xlink" width="200" height="200"><defs><style type="text/css"></style></defs><path d="M312.888889 588.8c31.288889 0 56.888889-25.6 56.888889-56.888889s-25.6-56.888889-56.888889-56.888889-56.888889 25.6-56.888889 56.888889 25.6 56.888889 56.888889 56.888889z m199.111111 199.111111c31.288889 0 56.888889-25.6 56.888889-56.888889s-25.6-56.888889-56.888889-56.888889-56.888889 25.6-56.888889 56.888889 25.6 56.888889 56.888889 56.888889z m199.111111-199.111111c31.288889 0 56.888889-25.6 56.888889-56.888889s-25.6-56.888889-56.888889-56.888889-56.888889 25.6-56.888889 56.888889 25.6 56.888889 56.888889 56.888889z m199.111111-455.111111h-199.111111v-56.888889c0-17.066667-11.377778-28.444444-28.444444-28.444444s-28.444444 11.377778-28.444445 28.444444v56.888889H369.777778v-56.888889c0-17.066667-11.377778-28.444444-28.444445-28.444444s-28.444444 11.377778-28.444444 28.444444v56.888889H113.777778c-31.288889 0-56.888889 25.6-56.888889 56.888889v682.666666c0 31.288889 25.6 56.888889 56.888889 56.888889h796.444444c31.288889 0 56.888889-25.6 56.888889-56.888889v-682.666666c0-31.288889-25.6-56.888889-56.888889-56.888889z m0 739.555555H113.777778v-483.555555h796.444444v483.555555z m0-540.444444H113.777778v-142.222222h199.111111v56.888889c0 17.066667 11.377778 28.444444 28.444444 28.444444s28.444444-11.377778 28.444445-28.444444v-56.888889h284.444444v56.888889c0 17.066667 11.377778 28.444444 28.444445 28.444444s28.444444-11.377778 28.444444-28.444444v-56.888889h199.111111v142.222222z m-398.222222 256c31.288889 0 56.888889-25.6 56.888889-56.888889s-25.6-56.888889-56.888889-56.888889-56.888889 25.6-56.888889 56.888889 25.6 56.888889 56.888889 56.888889z m199.111111 199.111111c31.288889 0 56.888889-25.6 56.888889-56.888889s-25.6-56.888889-56.888889-56.888889-56.888889 25.6-56.888889 56.888889 25.6 56.888889 56.888889 56.888889z" fill="#AAAAAA" p-id="6997"></path></svg>